{
    "asset" : {
        "generator" : "Khronos glTF Blender I/O v3.3.27",
        "version" : "2.0"
    },
    "scene" : 0,
    "scenes" : [
        {
            "extras" : {
                "sketcher" : {
                    "entities" : {},
                    "constraints" : {},
                    "version" : [
                        0,
                        25,
                        0
                    ]
                }
            },
            "name" : "Scene",
            "nodes" : [
                0,
                1,
                2
            ]
        }
    ],
    "nodes" : [
        {
            "mesh" : 0,
            "name" : "gear1",
            "rotation" : [
                0.6297237277030945,
                -0.32163339853286743,
                -0.32163336873054504,
                0.6297237873077393
            ],
            "scale" : [
                0.030000008642673492,
                0.030000008642673492,
                0.030000008642673492
            ],
            "translation" : [
                -0.8962687849998474,
                1.1189188957214355,
                -0.03389441594481468
            ]
        },
        {
            "mesh" : 1,
            "name" : "gear2",
            "rotation" : [
                0.6288397908210754,
                -0.3233582079410553,
                -0.3233581781387329,
                0.6288398504257202
            ],
            "scale" : [
                0.030000008642673492,
                0.030000008642673492,
                0.030000008642673492
            ],
            "translation" : [
                0.8480836153030396,
                0.6916506290435791,
                -0.03389448672533035
            ]
        },
        {
            "mesh" : 2,
            "name" : "joints_longer.001",
            "rotation" : [
                0.4358525276184082,
                -0.5568057298660278,
                -0.5568057298660278,
                0.4358524680137634
            ],
            "scale" : [
                0.030000008642673492,
                0.030000008642673492,
                0.030000008642673492
            ],
            "translation" : [
                -0.2087525725364685,
                0.944953203201294,
                -0.11190999299287796
            ]
        }
    ],
    "animations" : [
        {
            "channels" : [
                {
                    "sampler" : 0,
                    "target" : {
                        "node" : 0,
                        "path" : "rotation"
                    }
                }
            ],
            "name" : "gear1Action",
            "samplers" : [
                {
                    "input" : 9,
                    "interpolation" : "LINEAR",
                    "output" : 10
                }
            ]
        },
        {
            "channels" : [
                {
                    "sampler" : 0,
                    "target" : {
                        "node" : 1,
                        "path" : "rotation"
                    }
                }
            ],
            "name" : "gear2Action.001",
            "samplers" : [
                {
                    "input" : 9,
                    "interpolation" : "LINEAR",
                    "output" : 11
                }
            ]
        },
        {
            "channels" : [
                {
                    "sampler" : 0,
                    "target" : {
                        "node" : 2,
                        "path" : "translation"
                    }
                },
                {
                    "sampler" : 1,
                    "target" : {
                        "node" : 2,
                        "path" : "rotation"
                    }
                },
                {
                    "sampler" : 2,
                    "target" : {
                        "node" : 2,
                        "path" : "scale"
                    }
                }
            ],
            "name" : "joints_longer.001",
            "samplers" : [
                {
                    "input" : 9,
                    "interpolation" : "LINEAR",
                    "output" : 12
                },
                {
                    "input" : 9,
                    "interpolation" : "LINEAR",
                    "output" : 13
                },
                {
                    "input" : 9,
                    "interpolation" : "LINEAR",
                    "output" : 14
                }
            ]
        }
    ],
    "materials" : [
        {
            "doubleSided" : true,
            "name" : "Material.001",
            "pbrMetallicRoughness" : {
                "baseColorFactor" : [
                    0.5394797325134277,
                    0.016807230189442635,
                    0.02955685369670391,
                    1
                ],
                "metallicFactor" : 0.9716598987579346,
                "roughnessFactor" : 0.5
            }
        },
        {
            "doubleSided" : true,
            "name" : "Material.002",
            "pbrMetallicRoughness" : {
                "baseColorFactor" : [
                    0.009720849804580212,
                    0.39157235622406006,
                    0.10461657494306564,
                    1
                ],
                "metallicFactor" : 0,
                "roughnessFactor" : 0.5
            }
        },
        {
            "doubleSided" : true,
            "name" : "Material",
            "pbrMetallicRoughness" : {
                "baseColorFactor" : [
                    0.02955641783773899,
                    0.07035984843969345,
                    0.6038271188735962,
                    1
                ],
                "metallicFactor" : 0,
                "roughnessFactor" : 0.5
            }
        }
    ],
    "meshes" : [
        {
            "name" : "Nautilus_Gears_PlateV3 (1).001",
            "primitives" : [
                {
                    "attributes" : {
                        "POSITION" : 0,
                        "NORMAL" : 1
                    },
                    "indices" : 2,
                    "material" : 0
                }
            ]
        },
        {
            "name" : "Nautilus_Gears_PlateV3 (1).002",
            "primitives" : [
                {
                    "attributes" : {
                        "POSITION" : 3,
                        "NORMAL" : 4
                    },
                    "indices" : 5,
                    "material" : 1
                }
            ]
        },
        {
            "name" : "Nautilus_Gears_PlateV3 (1).004",
            "primitives" : [
                {
                    "attributes" : {
                        "POSITION" : 6,
                        "NORMAL" : 7
                    },
                    "indices" : 8,
                    "material" : 2
                }
            ]
        }
    ],
    "accessors" : [
        {
            "bufferView" : 0,
            "componentType" : 5126,
            "count" : 17717,
            "max" : [
                41.074947357177734,
                2.0538439750671387,
                32.17538070678711
            ],
            "min" : [
                -25.45107650756836,
                -1.9461557865142822,
                -24.38962745666504
            ],
            "type" : "VEC3"
        },
        {
            "bufferView" : 1,
            "componentType" : 5126,
            "count" : 17717,
            "type" : "VEC3"
        },
        {
            "bufferView" : 2,
            "componentType" : 5123,
            "count" : 20844,
            "type" : "SCALAR"
        },
        {
            "bufferView" : 3,
            "componentType" : 5126,
            "count" : 17372,
            "max" : [
                24.694297790527344,
                2.0538463592529297,
                24.724193572998047
            ],
            "min" : [
                -41.83172607421875,
                -1.9461534023284912,
                -31.84081268310547
            ],
            "type" : "VEC3"
        },
        {
            "bufferView" : 4,
            "componentType" : 5126,
            "count" : 17372,
            "type" : "VEC3"
        },
        {
            "bufferView" : 5,
            "componentType" : 5123,
            "count" : 20844,
            "type" : "SCALAR"
        },
        {
            "bufferView" : 6,
            "componentType" : 5126,
            "count" : 3840,
            "max" : [
                9.741043090820312,
                10.844915390014648,
                30.126659393310547
            ],
            "min" : [
                -9.750930786132812,
                -2.7629966735839844,
                -41.87332534790039
            ],
            "type" : "VEC3"
        },
        {
            "bufferView" : 7,
            "componentType" : 5126,
            "count" : 3840,
            "type" : "VEC3"
        },
        {
            "bufferView" : 8,
            "componentType" : 5123,
            "count" : 4308,
            "type" : "SCALAR"
        },
        {
            "bufferView" : 9,
            "componentType" : 5126,
            "count" : 200,
            "max" : [
                8.333333333333334
            ],
            "min" : [
                0.041666666666666664
            ],
            "type" : "SCALAR"
        },
        {
            "bufferView" : 10,
            "componentType" : 5126,
            "count" : 200,
            "type" : "VEC4"
        },
        {
            "bufferView" : 11,
            "componentType" : 5126,
            "count" : 200,
            "type" : "VEC4"
        },
        {
            "bufferView" : 12,
            "componentType" : 5126,
            "count" : 200,
            "type" : "VEC3"
        },
        {
            "bufferView" : 13,
            "componentType" : 5126,
            "count" : 200,
            "type" : "VEC4"
        },
        {
            "bufferView" : 14,
            "componentType" : 5126,
            "count" : 200,
            "type" : "VEC3"
        }
    ],
    "bufferViews" : [
        {
            "buffer" : 0,
            "byteLength" : 212604,
            "byteOffset" : 0,
            "target" : 34962
        },
        {
            "buffer" : 0,
            "byteLength" : 212604,
            "byteOffset" : 212604,
            "target" : 34962
        },
        {
            "buffer" : 0,
            "byteLength" : 41688,
            "byteOffset" : 425208,
            "target" : 34963
        },
        {
            "buffer" : 0,
            "byteLength" : 208464,
            "byteOffset" : 466896,
            "target" : 34962
        },
        {
            "buffer" : 0,
            "byteLength" : 208464,
            "byteOffset" : 675360,
            "target" : 34962
        },
        {
            "buffer" : 0,
            "byteLength" : 41688,
            "byteOffset" : 883824,
            "target" : 34963
        },
        {
            "buffer" : 0,
            "byteLength" : 46080,
            "byteOffset" : 925512,
            "target" : 34962
        },
        {
            "buffer" : 0,
            "byteLength" : 46080,
            "byteOffset" : 971592,
            "target" : 34962
        },
        {
            "buffer" : 0,
            "byteLength" : 8616,
            "byteOffset" : 1017672,
            "target" : 34963
        },
        {
            "buffer" : 0,
            "byteLength" : 800,
            "byteOffset" : 1026288
        },
        {
            "buffer" : 0,
            "byteLength" : 3200,
            "byteOffset" : 1027088
        },
        {
            "buffer" : 0,
            "byteLength" : 3200,
            "byteOffset" : 1030288
        },
        {
            "buffer" : 0,
            "byteLength" : 2400,
            "byteOffset" : 1033488
        },
        {
            "buffer" : 0,
            "byteLength" : 3200,
            "byteOffset" : 1035888
        },
        {
            "buffer" : 0,
            "byteLength" : 2400,
            "byteOffset" : 1039088
        }
    ],
    "buffers" : [
        {
            "byteLength" : 1041488,
            "uri" : "data:application/octet-stream;base64,"
        }
    ]
}
